# AST/ASF file generated using VICON BodyLanguage
# -----------------------------------------------
:version 1.10
:name VICON
:units
  mass 1.0
  length 0.45
  angle deg
:documentation
   .ast/.asf automatically generated from VICON data using
   VICON BodyBuilder and BodyLanguage model FoxedUp or BRILLIANT.MOD
:root
   order TX TY TZ RX RY RZ
   axis XYZ
   position 0 0 0  
   orientation 0 0 0 
:bonedata
  begin
     id 1 
     name lhipjoint
     direction 0.692814 -0.645514 0.321437 
     length 2.38754 
     axis 0 0 0  XYZ
  end
  begin
     id 2 
     name lfemur
     direction 0.34202 -0.939693 0  
     length 6.41921  
     axis 0 0 20  XYZ
    dof rx ry rz
    limits (-160.0 20.0)
           (-70.0 70.0)
           (-60.0 70.0)
  end
  begin
     id 3 
     name ltibia
     direction 0.34202 -0.939693 0   
     length 6.98247   
     axis 0 0 20   XYZ
    dof rx
    limits (-10.0 170.0)
  end
  begin
     id 4 
     name lfoot
     direction 0.0947186 -0.260237 0.960888   
     length 1.83034   
     axis -90 7.62852e-016 20   XYZ
    dof rx rz
    limits (-45.0 90.0)
           (-70.0 20.0)
  end
  begin
     id 5 
     name ltoes
     direction 1.53538e-011 -4.21952e-011 1   
     length 0.920499   
     axis -90 7.62852e-016 20   XYZ
    dof rx
    limits (-90.0 20.0)
  end
  begin
     id 6 
     name rhipjoint
     direction -0.631686 -0.693949 0.345555   
     length 2.2209  
     axis 0 0 0  XYZ 
  end
  begin
     id 7 
     name rfemur
     direction -0.34202 -0.939693 0   
     length 6.49542   
     axis 0 0 -20   XYZ
    dof rx ry rz
    limits (-160.0 20.0)
           (-70.0 70.0)
           (-70.0 60.0)
  end
  begin
     id 8 
     name rtibia
     direction -0.34202 -0.939693 0   
     length 7.21712   
     axis 0 0 -20   XYZ
    dof rx
    limits (-10.0 170.0)
 end
 begin
     id 9 
     name rfoot
     direction -0.0825378 -0.226771 0.970444   
     length 1.89724  
     axis -90 -7.62852e-016 -20   XYZ
    dof rx rz
    limits (-45.0 90.0)
           (-20.0 70.0)
  end
  begin
     id 10 
     name rtoes
     direction -1.53515e-011 -4.22016e-011 1   
     length 0.955868   
     axis -90 -7.62852e-016 -20   XYZ
    dof rx
    limits (-90.0 20.0)
  end
  begin
     id 11 
     name lowerback
     direction -0.0104711 0.984802 -0.173368   
     length 1.84931   
     axis 0 0 0   XYZ
    dof rx ry rz
    limits (-20.0 45.0)
           (-30.0 30.0)
           (-30.0 30.0)
  end
  begin
     id 12 
     name upperback
     direction -0.00286433 0.999996 -0.000382853   
     length 1.85768   
     axis 0 0 0   XYZ
    dof rx ry rz
    limits (-20.0 45.0)
           (-30.0 30.0)
           (-30.0 30.0)
  end
  begin
     id 13 
     name thorax
     direction 0.00167534 0.996793 0.0800069   
     length 1.92   
     axis 0 0 0   XYZ
    dof rx ry rz
    limits (-20.0 45.0)
           (-30.0 30.0)
           (-30.0 30.0)
  end
  begin
     id 14 
     name lowerneck
     direction -0.0672491 0.995415 0.068018   
     length 1.58923   
     axis 0 0 0   XYZ
    dof rx ry rz
    limits (-20.0 45.0)
           (-30.0 30.0)
           (-30.0 30.0)
  end
  begin
     id 15 
     name upperneck
     direction 0.0958019 0.982476 -0.159884   
     length 1.60189   
     axis 0 0 0   XYZ
    dof rx ry rz
    limits (-20.0 45.0)
           (-30.0 30.0)
           (-30.0 30.0)
  end
  begin
     id 16
     name head
     direction 0.032989 0.997338 -0.0650226  
     length 1.61681  
     axis 0 0 0   XYZ
    dof rx ry rz
    limits (-20.0 45.0)
           (-30.0 30.0)
           (-30.0 30.0)
  end
  begin
     id 17 
     name lclavicle
     direction 0.954279 0.298875 -0.00496069  
     length 2.99449  
     axis 0 0 0   XYZ
    dof ry rz
    limits (-20.0 10.0)
           (0.0 20.0)
  end
  begin
     id 18 
     name lhumerus
     direction 1 -4.48985e-011 -4.2057e-027   
     length 4.79185   
     axis 180 -30 -90   XYZ
    dof rx ry rz
    limits (-60.0 90.0)
           (-90.0 90.0)
           (-90.0 90.0)
  end
  begin
     id 19
     name lradius
     direction 1 -4.48945e-011 1.15441e-028   
     length 2.65553   
     axis 180 -30 -90   XYZ
    dof rx
    limits (-10.0 170.0)
  end
  begin
     id 20
     name lwrist
     direction 1 -4.4899e-011 4.8894e-028   
     length 1.32777   
     axis -2.56392e-016 90 90   XYZ
    dof ry
    limits (-180.0 0.0)
 end
  begin
     id 21 
     name lhand
     direction 1 -4.48908e-011 9.7788e-028   
     length 0.743904   
     axis -6.23971e-016 90 90   XYZ
    dof rx rz
    limits (-90.0 90.0)
           (-45.0 45.0)
  end
  begin
     id 22 
     name lfingers
     direction 1 -4.49068e-011 1.95576e-027   
     length 0.599754   
     axis -1.24794e-015 90 90   XYZ
    dof rx
    limits (0.0 90.0)
  end
  begin
     id 23
     name lthumb
     direction 0.707107 -6.34883e-011 0.707107   
     length 0.861131   
     axis -90 45 2.85299e-015   XYZ
    dof rx rz
    limits (-45.0 45.0)
           (-45.0 45.0)
  end
  begin
     id 24 
     name rclavicle
     direction -0.957921 0.286916 0.00811568   
     length 3.06817  
     axis 0 0 0   XYZ 
    dof ry rz
    limits (-10.0 20.0)
           (-20.0 0.0)
  end
  begin
     id 25 
     name rhumerus
     direction -1 -4.48971e-011 -3.07942e-027  
     length 4.77254   
     axis 180 30 90   XYZ
    dof rx ry rz
    limits (-90.0 60.0)
           (-90.0 90.0)
           (-90.0 90.0)
  end
  begin
     id 26 
     name rradius
     direction -1 -4.48957e-011 -9.6815e-028   
     length 2.75995   
     axis 180 30 90   XYZ
    dof rx
    limits (-10.0 170.0)
  end
  begin
     id 27 
     name rwrist
     direction -1 -4.48979e-011 4.8894e-028   
     length 1.37997   
     axis -2.56392e-016 -90 -90   XYZ
    dof ry
    limits (-180.0 0.0)
  end
  begin
     id 28
     name rhand
     direction -1 -4.48906e-011 9.7788e-028   
     length 0.701619   
     axis -6.23971e-016 -90 -90   XYZ
    dof rx rz
    limits (-90.0 90.0)
           (-45.0 45.0)
  end
  begin
     id 29
     name rfingers
     direction -1 -4.49018e-011 1.95576e-027   
     length 0.565663   
     axis -1.24794e-015 -90 -90   XYZ
    dof rx
    limits (0.0 90.0)
  end
  begin
     id 30
     name rthumb
     direction -0.707107 -6.34881e-011 0.707107   
     length 0.812183   
     axis -90 -45 -2.85299e-015   XYZ
    dof rx rz
    limits (-45.0 45.0)
           (-45.0 45.0)
  end
:hierarchy
  begin
    root lhipjoint rhipjoint lowerback
    lhipjoint lfemur
    lfemur ltibia
    ltibia lfoot
    lfoot ltoes
    rhipjoint rfemur
    rfemur rtibia
    rtibia rfoot
    rfoot rtoes
    lowerback upperback
    upperback thorax
    thorax lowerneck lclavicle rclavicle
    lowerneck upperneck
    upperneck head
    lclavicle lhumerus
    lhumerus lradius
    lradius lwrist
    lwrist lhand lthumb
    lhand lfingers
    rclavicle rhumerus
    rhumerus rradius
    rradius rwrist
    rwrist rhand rthumb
    rhand rfingers
  end

#!OML:ASF F:\VICON\USERDATA\INSTALL\rory3\rory3.ASF
:FULLY-SPECIFIED
:DEGREES
1268
root 0.136803 15.9745 -0.216944 -0.89544 1.16463 -2.10208
lowerback 13.5907 3.34515 -2.72076
upperback -0.143827 3.81709 -2.41556
thorax -7.79543 1.90509 -1.80544
lowerneck -8.39094 -14.4422 -18.2698
upperneck 26.3489 -18.1476 4.13719
head 12.2101 -9.56724 1.77044
rclavicle -1.15295e-014 -3.18055e-015
rhumerus 44.9171 50.0904 -42.8757
rradius 46.4095
rwrist 37.5319
rhand -10.3185 9.87381
rfingers 7.12502
rthumb 15.6769 -19.5111
lclavicle -1.15295e-014 -3.18055e-015
lhumerus -30.0195 -2.45074 85.6867
lradius 22.7462
lwrist -3.07059
lhand -8.85841 15.6043
lfingers 7.12502
lthumb 17.0827 44.8733
rfemur -4.30513 10.2231 19.9159
rtibia 23.0795
rfoot -13.2346 -12.9262
rtoes -9.48942
lfemur -3.97438 -12.6037 -14.8693
ltibia 21.2358
lfoot -12.5446 8.49147
ltoes -13.1028
1269
root 0.134729 15.9735 -0.214829 -0.96839 1.19617 -2.18127
lowerback 13.6176 3.40933 -2.63453
upperback -0.119656 3.92148 -2.34053
thorax -7.78331 1.95387 -1.79558
lowerneck -8.26659 -14.4757 -18.4392
upperneck 26.3307 -18.2373 4.31009
head 12.2288 -9.60665 1.84589
rclavicle -2.61402e-014 6.36111e-015
rhumerus 44.6541 50.795 -43.173
rradius 46.7237
rwrist 36.8373
rhand -10.2186 9.86895
rfingers 7.12502
rthumb 15.7731 -19.5084
lclavicle -2.61402e-014 6.36111e-015
lhumerus -29.7668 -2.36242 85.8109
lradius 22.4984
lwrist -3.15588
lhand -8.98398 15.7333
lfingers 7.12502
lthumb 16.9619 45.0127
rfemur -4.19711 10.334 20.0411
rtibia 23.0563
rfoot -13.237 -13.0373
rtoes -9.64123
lfemur -3.9168 -12.5927 -14.7894
ltibia 21.2743
lfoot -12.5924 8.47172
ltoes -13.4175
1270
root 0.134159 15.9727 -0.213524 -1.00657 1.22177 -2.25844
lowerback 13.6224 3.47203 -2.53181
upperback -0.0700981 4.02846 -2.26248
thorax -7.73034 2.00355 -1.78939
lowerneck -8.30785 -14.5234 -18.5566
upperneck 26.3547 -18.3109 4.42725
head 12.2825 -9.63502 1.88403
rclavicle 4.40308e-014 -2.70347e-014
rhumerus 43.9965 51.0802 -43.9715
rradius 46.9255
rwrist 36.6379
rhand -10.6451 10.2574
rfingers 7.12502
rthumb 15.3624 -19.1519
lclavicle 4.40308e-014 -2.70347e-014
lhumerus -29.511 -2.29949 85.9513
lradius 22.3588
lwrist -3.05984
lhand -8.89679 15.9279
lfingers 7.12502
lthumb 17.0458 45.2
rfemur -4.14798 10.3864 20.1463
rtibia 23.0696
rfoot -13.2346 -13.1143
rtoes -9.5616
lfemur -3.89631 -12.5793 -14.7071
ltibia 21.3153
lfoot -12.5972 8.46328
ltoes -13.434
1271
root 0.135288 15.9712 -0.213024 -1.00395 1.24605 -2.22048
lowerback 13.6123 3.53048 -2.5649
upperback -0.0456882 4.10595 -2.20981
thorax -7.70427 2.04349 -1.72878
lowerneck -8.36032 -14.5478 -18.5943
upperneck 26.3959 -18.3563 4.51173
head 12.3286 -9.6475 1.90505
rclavicle -5.76476e-014 -1.98785e-014
rhumerus 43.0409 51.0565 -45.2161
rradius 46.9922
rwrist 36.6972
rhand -11.2506 10.4947
rfingers 7.12502
rthumb 14.7791 -18.9584
lclavicle -5.76476e-014 -1.98785e-014
lhumerus -29.3934 -2.14195 86.0533
lradius 22.2775
lwrist -2.99132
lhand -8.84578 16.0035
lfingers 7.12502
lthumb 17.0949 45.2714
rfemur -4.17534 10.3881 20.0989
rtibia 23.1189
rfoot -13.1919 -13.142
rtoes -9.62867
lfemur -3.91244 -12.5807 -14.7538
ltibia 21.3355
lfoot -12.6273 8.442
ltoes -13.2241
1272
root 0.136791 15.9695 -0.213921 -1.01819 1.27579 -2.10984
lowerback 13.6438 3.56562 -2.67026
upperback -0.0186987 4.13667 -2.18862
thorax -7.70215 2.06253 -1.65469
lowerneck -8.4031 -14.5543 -18.4914
upperneck 26.3874 -18.379 4.51778
head 12.3244 -9.64609 1.88733
rclavicle 3.96575e-014 -1.19271e-014
rhumerus 42.1296 50.8938 -46.5097
rradius 47.1527
rwrist 36.5545
rhand -11.3899 10.6496
rfingers 7.12502
rthumb 14.6449 -18.8133
lclavicle 3.96575e-014 -1.19271e-014
lhumerus -29.3068 -2.10249 86.126
lradius 22.1895
lwrist -2.89416
lhand -8.85209 16.014
lfingers 7.12502
lthumb 17.0888 45.2825
rfemur -4.20451 10.402 19.9758
rtibia 23.2173
rfoot -13.2513 -13.1734
rtoes -9.51742
lfemur -3.89296 -12.5905 -14.891
ltibia 21.3159
lfoot -12.5648 8.48293
ltoes -13.3003
1273
root 0.139243 15.9684 -0.214406 -1.0323 1.31788 -1.99945
lowerback 13.6564 3.58762 -2.76076
upperback 0.0124237 4.15392 -2.15927
thorax -7.68458 2.07473 -1.57596
lowerneck -8.4147 -14.5451 -18.3746
upperneck 26.3194 -18.3796 4.50971
head 12.2841 -9.63567 1.87125
rclavicle 1.14301e-014 5.56597e-015
rhumerus 41.1693 50.5861 -47.8456
rradius 47.4031
rwrist 36.3119
rhand -11.1938 10.7278
rfingers 7.12502
rthumb 14.8338 -18.7212
lclavicle 1.14301e-014 5.56597e-015
lhumerus -29.1468 -1.99128 86.1681
lradius 21.9796
lwrist -2.97856
lhand -8.87453 15.9021
lfingers 7.12502
lthumb 17.0672 45.1724
rfemur -4.22855 10.3846 19.8469
rtibia 23.3217
rfoot -13.3309 -13.1614
rtoes -9.53894
lfemur -3.86768 -12.6344 -15.0318
ltibia 21.2853
lfoot -12.5367 8.51719
ltoes -13.3924
1274
root 0.141593 15.9678 -0.215486 -1.05098 1.39474 -1.92606
lowerback 13.6777 3.59048 -2.79736
upperback 0.0295974 4.1548 -2.11501
thorax -7.68412 2.07727 -1.50944
lowerneck -8.44238 -14.5483 -18.297
upperneck 26.2983 -18.3882 4.49293
head 12.2707 -9.63301 1.85263
rclavicle -9.01488e-014 2.06736e-014
rhumerus 40.0935 50.1079 -49.2449
rradius 47.6731
rwrist 36.0726
rhand -11.1325 10.5411
rfingers 7.12502
rthumb 14.8928 -18.9036
lclavicle -9.01488e-014 2.06736e-014
lhumerus -29.1488 -2.23678 86.3123
lradius 21.988
lwrist -2.75634
lhand -8.84583 15.7385
lfingers 7.12502
lthumb 17.0948 45.0064
rfemur -4.24938 10.3315 19.7611
rtibia 23.4136
rfoot -13.3475 -13.199
rtoes -9.71992
lfemur -3.85974 -12.6608 -15.1241
ltibia 21.2668
lfoot -12.5631 8.4701
ltoes -13.2656
